# Blender v2.79 (sub 0) OBJ File: 'Target.blend'
# www.blender.org
o Cube.003_Cube.006
v 0.134526 1.122158 -0.367586
v 0.057992 0.929598 -0.025441
v 0.127605 1.116640 -0.372239
v 0.051071 0.924081 -0.030094
v 0.127566 1.128968 -0.365310
v 0.051032 0.936409 -0.023165
v 0.120645 1.123451 -0.369963
v 0.044111 0.930891 -0.027818
v 0.095281 1.158709 -0.372974
v 0.101510 1.163675 -0.368786
v 0.120026 1.116523 -0.359753
v 0.110148 1.091672 -0.315597
v 0.126254 1.121489 -0.355565
v 0.116377 1.096638 -0.311409
v 0.165513 1.101049 -0.389715
v 0.159285 1.096083 -0.393903
v 0.130482 1.117352 -0.356947
v 0.120605 1.092501 -0.312791
v 0.124253 1.112386 -0.361135
v 0.114376 1.087535 -0.316980
v -0.001251 1.116354 -0.421528
v 0.015380 0.989454 -0.042556
v -0.008352 1.109590 -0.423481
v 0.008279 0.982690 -0.044509
v -0.008279 1.123001 -0.418994
v 0.008352 0.996101 -0.040022
v -0.015380 1.116237 -0.420947
v 0.001251 0.989337 -0.041975
v -0.044438 1.148476 -0.424387
v -0.038046 1.154564 -0.422629
v -0.013139 1.111404 -0.409800
v -0.010993 1.095027 -0.360892
v -0.006748 1.117492 -0.408042
v -0.004601 1.101115 -0.359134
v 0.026584 1.093439 -0.445933
v 0.020193 1.087352 -0.447691
v -0.002479 1.113454 -0.409581
v -0.000332 1.097077 -0.360673
v -0.008870 1.107367 -0.411339
v -0.006724 1.090990 -0.362431
v -0.646450 -0.467315 0.528574
v -0.141767 0.615827 0.067688
v -0.646450 -0.469564 0.437901
v -0.141767 0.579884 -0.022985
v -0.555663 -0.466729 0.546255
v -0.050980 0.577812 0.085369
v -0.555663 -0.468978 0.455582
v -0.050980 0.558873 -0.016562
v -0.050000 -0.473084 -0.078003
v -0.050000 0.717310 0.100951
v -0.050000 -0.458218 -0.176891
v -0.050000 0.732176 0.002062
v 0.050000 -0.473084 -0.078003
v 0.050000 0.717310 0.100951
v 0.050000 -0.458218 -0.176892
v 0.050000 0.732176 0.002062
v 0.094231 1.393192 0.008930
v 0.094232 1.379654 0.179994
v 0.414507 1.162323 -0.009340
v 0.414507 1.148785 0.161724
v 0.422650 0.768602 -0.040499
v 0.422650 0.755064 0.130565
v 0.112529 0.526444 -0.059663
v 0.112529 0.512907 0.111401
v -0.293772 0.593194 -0.054380
v -0.293772 0.579656 0.116684
v -0.464587 0.941214 -0.026838
v -0.464587 0.927676 0.144226
v -0.291009 1.317386 0.002931
v -0.291009 1.303848 0.173995
v 0.063221 1.279164 -0.009744
v 0.063221 1.276285 0.026633
v 0.283515 1.106661 -0.023396
v 0.283515 1.103782 0.012981
v 0.304757 0.824409 -0.045733
v 0.304757 0.821530 -0.009356
v 0.078504 0.654120 -0.059209
v 0.078504 0.651241 -0.022832
v -0.219444 0.708810 -0.054881
v -0.219444 0.705931 -0.018504
v -0.326519 0.962431 -0.034810
v -0.326519 0.959553 0.001567
v -0.204680 1.205210 -0.015597
v -0.204680 1.202331 0.020780
v -0.076206 1.143932 -0.027175
v -0.076206 1.142180 -0.005036
v 0.093872 1.132226 -0.028101
v 0.093872 1.130474 -0.005963
v 0.201419 0.997399 -0.038771
v 0.201419 0.995647 -0.016633
v 0.145969 0.834529 -0.051661
v 0.145969 0.832777 -0.029522
v -0.022769 0.760453 -0.057523
v -0.022769 0.758701 -0.035384
v -0.163695 0.851599 -0.050310
v -0.163695 0.849847 -0.028171
v -0.185676 1.015350 -0.037351
v -0.185676 1.013598 -0.015212
v 0.555663 -0.466731 0.546254
v 0.050980 0.577813 0.085369
v 0.555663 -0.468979 0.455582
v 0.050980 0.535641 -0.005304
v 0.646450 -0.467317 0.528574
v 0.141768 0.615827 0.067688
v 0.646450 -0.469565 0.437901
v 0.141768 0.573655 -0.022985
v -0.022878 1.049065 -0.041939
v -0.022878 1.048223 -0.031310
v 0.057895 1.043444 -0.042384
v 0.057894 1.042603 -0.031754
v 0.096183 0.978708 -0.047507
v 0.096183 0.977867 -0.036878
v 0.069559 0.880514 -0.053696
v 0.069559 0.879673 -0.043066
v -0.011459 0.839968 -0.056510
v -0.011458 0.839127 -0.045881
v -0.090542 0.885377 -0.053047
v -0.090542 0.884536 -0.042417
v -0.089676 0.987327 -0.046825
v -0.089676 0.986486 -0.036195
v -0.281885 1.005993 -0.340171
v -0.165066 0.788694 -0.025315
v -0.289145 0.999377 -0.342044
v -0.172327 0.782077 -0.027187
v -0.288110 1.011161 -0.334295
v -0.171291 0.793862 -0.019438
v -0.295371 1.004545 -0.336167
v -0.178552 0.787246 -0.021311
v -0.324810 1.034038 -0.323558
v -0.318276 1.039993 -0.321873
v -0.290226 0.997240 -0.327634
v -0.275150 0.969197 -0.287000
v -0.283692 1.003195 -0.325948
v -0.268616 0.975152 -0.285315
v -0.261028 0.992466 -0.375914
v -0.267563 0.986511 -0.377599
v -0.279910 1.000056 -0.329518
v -0.264834 0.972012 -0.288884
v -0.286445 0.994101 -0.331203
v -0.271369 0.966058 -0.290569
vt 0.982531 0.362073
vt 0.936188 0.362073
vt 0.936188 0.348367
vt 0.982531 0.348367
vt 0.936188 0.389486
vt 0.936188 0.375780
vt 0.982531 0.375780
vt 0.982531 0.389486
vt 0.982531 0.348367
vt 0.936188 0.348367
vt 0.936188 0.334661
vt 0.982531 0.334661
vt 0.936188 0.375780
vt 0.936188 0.362073
vt 0.982531 0.362073
vt 0.982531 0.375780
vt 0.982519 0.389486
vt 0.982519 0.403192
vt 0.936188 0.403195
vt 0.936188 0.389489
vt 0.554492 0.394134
vt 0.554492 0.475296
vt 0.539393 0.475331
vt 0.539393 0.394169
vt 0.462950 0.497711
vt 0.460786 0.578961
vt 0.460786 0.497600
vt 0.524297 0.562179
vt 0.524297 0.480908
vt 0.539396 0.480918
vt 0.539396 0.562189
vt 0.465114 0.497600
vt 0.465114 0.578961
vt 0.462950 0.497711
vt 0.469441 0.578942
vt 0.469441 0.497600
vt 0.484540 0.497611
vt 0.484540 0.578953
vt 0.469441 0.497711
vt 0.467277 0.578961
vt 0.467277 0.497600
vt 0.524294 0.475420
vt 0.524294 0.394140
vt 0.539393 0.394134
vt 0.539393 0.475414
vt 0.467277 0.497600
vt 0.467277 0.578961
vt 0.465114 0.497711
vt 0.880247 0.497247
vt 0.880248 0.334661
vt 0.885163 0.347673
vt 0.885163 0.510259
vt 0.936188 0.336046
vt 0.936187 0.498833
vt 0.890115 0.497447
vt 0.890115 0.334661
vt 0.885163 0.510442
vt 0.885163 0.347655
vt 0.834166 0.498633
vt 0.834167 0.336047
vt 0.839082 0.511645
vt 0.471644 0.497600
vt 0.471644 0.401424
vt 0.484540 0.394134
vt 0.484540 0.490309
vt 0.428466 0.481913
vt 0.450051 0.401408
vt 0.450051 0.497645
vt 0.415562 0.474638
vt 0.437147 0.394134
vt 0.450051 0.417137
vt 0.510142 0.477757
vt 0.484540 0.394134
vt 0.498692 0.397285
vt 0.524294 0.480908
vt 0.524294 0.399792
vt 0.524297 0.562030
vt 0.510146 0.565193
vt 0.510146 0.484072
vt 0.484540 0.567669
vt 0.252045 0.088756
vt 0.246778 0.051251
vt 0.290536 0.058109
vt 0.290536 0.092817
vt 0.248694 0.127424
vt 0.246778 0.092817
vt 0.288361 0.097172
vt 0.288361 0.130232
vt 0.348598 0.010999
vt 0.348598 0.044185
vt 0.301992 0.044720
vt 0.309577 0.010729
vt 0.291914 0.010729
vt 0.291914 0.045042
vt 0.252204 0.013786
vt 0.246778 0.167601
vt 0.246778 0.139957
vt 0.283179 0.130232
vt 0.283179 0.157877
vt 0.059821 0.261315
vt 0.059821 0.010729
vt 0.089514 0.029183
vt 0.089514 0.279769
vt 0.154534 0.026096
vt 0.154534 0.277621
vt 0.119292 0.262254
vt 0.119292 0.010729
vt 0.089514 0.280578
vt 0.089514 0.029052
vt 0.024473 0.276813
vt 0.024473 0.026226
vt 0.054167 0.295266
vt 0.522524 0.123833
vt 0.567191 0.123833
vt 0.560244 0.265401
vt 0.515576 0.265401
vt 0.515384 0.335206
vt 0.470716 0.335206
vt 0.664265 0.334675
vt 0.619598 0.334675
vt 0.666360 0.276301
vt 0.711027 0.276301
vt 0.683198 0.135088
vt 0.727866 0.135088
vt 0.653262 0.021783
vt 0.697929 0.021783
vt 0.574540 0.265699
vt 0.567191 0.124337
vt 0.599249 0.013892
vt 0.643917 0.013892
vt 0.490153 0.013892
vt 0.534821 0.013892
vt 0.423790 0.277622
vt 0.406551 0.136629
vt 0.436165 0.022737
vt 0.581216 0.755761
vt 0.604372 0.754430
vt 0.604372 0.896738
vt 0.581216 0.898070
vt 0.536809 0.978985
vt 0.513652 0.980316
vt 0.677589 0.656626
vt 0.700675 0.654566
vt 0.630782 0.723463
vt 0.607697 0.725524
vt 0.627458 0.873565
vt 0.604372 0.875625
vt 0.700675 0.977308
vt 0.677589 0.979368
vt 0.700675 0.654566
vt 0.705588 0.670998
vt 0.705588 0.734500
vt 0.700675 0.718067
vt 0.509044 0.655897
vt 0.532200 0.654566
vt 0.425272 0.923795
vt 0.379838 0.777403
vt 0.423022 0.664435
vt 0.082485 0.622692
vt 0.062164 0.623255
vt 0.024230 0.509298
vt 0.044552 0.508735
vt 0.049419 0.391436
vt 0.069741 0.390873
vt 0.126114 0.368672
vt 0.146436 0.368109
vt 0.283441 0.368109
vt 0.303796 0.368192
vt 0.237495 0.452251
vt 0.217140 0.452167
vt 0.243207 0.575897
vt 0.222853 0.575814
vt 0.303796 0.647412
vt 0.283441 0.647329
vt 0.159432 0.647111
vt 0.139110 0.647674
vt 0.217140 0.450366
vt 0.217140 0.574066
vt 0.200690 0.036147
vt 0.200690 0.334854
vt 0.154534 0.334090
vt 0.162134 0.040357
vt 0.301992 0.035529
vt 0.301992 0.329135
vt 0.296984 0.308753
vt 0.298910 0.010729
vt 0.208193 0.311008
vt 0.200690 0.012028
vt 0.246778 0.010729
vt 0.246778 0.314808
vt 0.294845 0.333743
vt 0.291914 0.031057
vt 0.296984 0.010729
vt 0.296984 0.308960
vt 0.155496 0.014939
vt 0.194052 0.010729
vt 0.063724 0.926612
vt 0.045710 0.926795
vt 0.015991 0.818822
vt 0.034006 0.818639
vt 0.047516 0.724225
vt 0.065530 0.724042
vt 0.128073 0.689953
vt 0.146087 0.689770
vt 0.278357 0.689770
vt 0.296376 0.690314
vt 0.231421 0.765208
vt 0.213403 0.764664
vt 0.227165 0.898816
vt 0.209146 0.898272
vt 0.296376 0.970154
vt 0.278357 0.969611
vt 0.137083 0.969474
vt 0.119069 0.969656
vt 0.209146 0.765798
vt 0.209146 0.899414
vt 0.740150 0.351583
vt 0.740150 0.613257
vt 0.703935 0.605748
vt 0.703935 0.344074
vt 0.834166 0.344066
vt 0.834166 0.605831
vt 0.805237 0.596426
vt 0.805237 0.334661
vt 0.769059 0.603922
vt 0.769059 0.342157
vt 0.769059 0.603844
vt 0.732843 0.334661
vt 0.401537 0.534291
vt 0.401537 0.397875
vt 0.415562 0.394134
vt 0.415562 0.530550
vt 0.370801 0.491063
vt 0.386167 0.397861
vt 0.386167 0.534347
vt 0.356772 0.487335
vt 0.372138 0.394134
vt 0.386167 0.441123
vt 0.366320 0.560752
vt 0.407011 0.534347
vt 0.397463 0.546522
vt 0.356772 0.572927
vt 0.407011 0.591853
vt 0.455189 0.565985
vt 0.415562 0.526360
vt 0.420136 0.510946
vt 0.459762 0.550571
vt 0.459762 0.497645
vn 0.6960 -0.6810 -0.2276
vn -0.6921 -0.5518 -0.4654
vn -0.6960 0.6810 0.2276
vn 0.6921 0.5518 0.4654
vn 0.1913 0.4814 -0.8554
vn -0.7024 0.3664 0.6102
vn 0.5315 0.0467 -0.8458
vn 0.5188 -0.8285 0.2108
vn -0.2071 0.7694 -0.6042
vn 0.7028 -0.6647 -0.2534
vn -0.7102 -0.6764 -0.1953
vn -0.7028 0.6647 0.2534
vn 0.7101 0.6764 0.1953
vn -0.0416 0.3172 -0.9474
vn -0.5966 0.4309 0.6770
vn 0.3377 -0.0838 -0.9375
vn -0.7101 -0.6764 -0.1953
vn 0.6366 -0.7354 0.2323
vn -0.4082 0.6216 -0.6686
vn -0.9142 0.3966 -0.0835
vn 0.0699 -0.4368 -0.8968
vn 0.9061 -0.4205 0.0463
vn -0.0863 0.4302 0.8986
vn 0.0016 -0.9997 0.0248
vn -1.0000 -0.0000 0.0000
vn -0.0000 0.1487 -0.9889
vn 1.0000 0.0000 -0.0000
vn 0.0000 -0.1487 0.9889
vn -0.0000 -0.9889 -0.1487
vn 0.5860 0.8078 0.0639
vn 0.9998 0.0205 0.0016
vn 0.6166 -0.7848 -0.0621
vn -0.1626 -0.9836 -0.0778
vn -0.8982 -0.4381 -0.0347
vn 0.0000 -0.0789 0.9969
vn -0.9085 0.4166 0.0330
vn -0.1937 0.9780 0.0774
vn -0.0000 0.0789 -0.9969
vn 0.6177 0.7839 0.0620
vn 0.9972 0.0746 0.0059
vn 0.6026 -0.7956 -0.0630
vn -0.1811 -0.9804 -0.0776
vn -0.9217 -0.3867 -0.0306
vn -0.8943 0.4460 0.0353
vn -0.2669 0.9607 0.0760
vn 0.0689 0.9945 0.0787
vn 0.7827 0.6205 0.0491
vn 0.9469 -0.3204 -0.0254
vn 0.4030 -0.9123 -0.0722
vn -0.5443 -0.8363 -0.0662
vn -0.9912 -0.1322 -0.0105
vn -0.7624 0.6451 0.0510
vn -0.9096 -0.4036 0.0989
vn -0.0826 -0.4426 -0.8929
vn 0.9147 0.3925 -0.0961
vn 0.0863 0.4302 0.8986
vn -0.0016 -0.9997 0.0248
vn 0.0696 0.9945 0.0787
vn 0.8614 0.5063 0.0401
vn 0.9653 -0.2604 -0.0206
vn 0.4484 -0.8911 -0.0705
vn -0.4990 -0.8639 -0.0684
vn -1.0000 0.0084 0.0007
vn -0.6799 0.7310 0.0579
vn -0.0011 0.0682 -0.9977
vn 0.6225 -0.5168 -0.5877
vn -0.7261 -0.6616 -0.1872
vn -0.6225 0.5168 0.5877
vn 0.7261 0.6616 0.1873
vn -0.2920 0.5432 -0.7871
vn -0.4060 0.1927 0.8933
vn 0.0828 0.1862 -0.9790
vn 0.6863 -0.7141 -0.1378
vn -0.7261 -0.6616 -0.1873
vn -0.5779 0.7347 -0.3554
s off
f 1/1/1 2/2/1 4/3/1 3/4/1
f 3/5/2 4/6/2 8/7/2 7/8/2
f 7/9/3 8/10/3 6/11/3 5/12/3
f 5/13/4 6/14/4 2/15/4 1/16/4
f 3/17/5 7/18/5 5/19/5 1/20/5
f 9/21/6 12/22/6 14/23/6 10/24/6
f 13/25/4 10/26/4 14/27/4
f 10/28/7 13/29/7 11/30/7 9/31/7
f 12/32/2 9/33/2 11/34/2
f 15/35/8 18/36/8 20/37/8 16/38/8
f 19/39/2 16/40/2 20/41/2
f 16/42/9 19/43/9 17/44/9 15/45/9
f 18/46/4 15/47/4 17/48/4
f 21/49/10 22/50/10 24/51/10 23/52/10
f 23/53/11 24/54/11 28/55/11 27/56/11
f 27/56/12 28/55/12 26/57/12 25/58/12
f 25/59/13 26/60/13 22/50/13 21/49/13
f 23/52/14 27/61/14 25/59/14 21/49/14
f 29/62/15 32/63/15 34/64/15 30/65/15
f 33/66/13 30/67/13 34/68/13
f 30/67/16 33/66/16 31/69/16 29/70/16
f 32/63/17 29/62/17 31/71/17
f 35/72/18 38/73/18 40/74/18 36/75/18
f 39/76/17 36/75/17 40/74/17
f 36/75/19 39/77/19 37/78/19 35/79/19
f 38/80/13 35/79/13 37/78/13
f 41/81/20 42/82/20 44/83/20 43/84/20
f 43/85/21 44/86/21 48/87/21 47/88/21
f 47/89/22 48/90/22 46/91/22 45/92/22
f 45/93/23 46/94/23 42/82/23 41/95/23
f 43/96/24 47/97/24 45/98/24 41/99/24
f 49/100/25 50/101/25 52/102/25 51/103/25
f 51/104/26 52/105/26 56/106/26 55/107/26
f 55/107/27 56/106/27 54/108/27 53/109/27
f 53/110/28 54/111/28 50/101/28 49/100/28
f 51/103/29 55/112/29 53/110/29 49/100/29
f 57/113/30 58/114/30 60/115/30 59/116/30
f 59/116/31 60/115/31 62/117/31 61/118/31
f 61/119/32 62/120/32 64/121/32 63/122/32
f 63/122/33 64/121/33 66/123/33 65/124/33
f 65/124/34 66/123/34 68/125/34 67/126/34
f 60/127/35 58/128/35 70/129/35 68/125/35 66/123/35 64/121/35 62/120/35
f 67/126/36 68/125/36 70/129/36 69/130/36
f 69/131/37 70/132/37 58/114/37 57/113/37
f 57/113/38 59/116/38 61/118/38 63/133/38 65/134/38 67/135/38 69/131/38
f 71/136/39 72/137/39 74/138/39 73/139/39
f 73/139/40 74/138/40 76/140/40 75/141/40
f 75/142/41 76/143/41 78/144/41 77/145/41
f 77/145/42 78/144/42 80/146/42 79/147/42
f 79/147/43 80/146/43 82/148/43 81/149/43
f 81/150/44 82/151/44 84/152/44 83/153/44
f 83/154/45 84/155/45 72/137/45 71/136/45
f 71/136/38 73/139/38 75/141/38 77/156/38 79/157/38 81/158/38 83/154/38
f 85/159/46 86/160/46 88/161/46 87/162/46
f 87/162/47 88/161/47 90/163/47 89/164/47
f 89/164/48 90/163/48 92/165/48 91/166/48
f 91/167/49 92/168/49 94/169/49 93/170/49
f 93/170/50 94/169/50 96/171/50 95/172/50
f 95/172/51 96/171/51 98/173/51 97/174/51
f 97/175/52 98/176/52 86/160/52 85/159/52
f 85/159/38 87/162/38 89/164/38 91/166/38 93/177/38 95/178/38 97/175/38
f 99/179/53 100/180/53 102/181/53 101/182/53
f 101/183/54 102/184/54 106/185/54 105/186/54
f 105/187/55 106/188/55 104/189/55 103/190/55
f 103/191/56 104/192/56 100/193/56 99/194/56
f 101/182/57 105/195/57 103/196/57 99/179/57
f 107/197/58 108/198/58 110/199/58 109/200/58
f 109/200/59 110/199/59 112/201/59 111/202/59
f 111/202/60 112/201/60 114/203/60 113/204/60
f 113/205/61 114/206/61 116/207/61 115/208/61
f 115/208/62 116/207/62 118/209/62 117/210/62
f 117/210/63 118/209/63 120/211/63 119/212/63
f 119/213/64 120/214/64 108/198/64 107/197/64
f 107/197/65 109/200/65 111/202/65 113/204/65 115/215/65 117/216/65 119/213/65
f 121/217/66 122/218/66 124/219/66 123/220/66
f 123/221/67 124/222/67 128/223/67 127/224/67
f 127/224/68 128/223/68 126/225/68 125/226/68
f 125/226/69 126/227/69 122/218/69 121/217/69
f 123/220/70 127/228/70 125/226/70 121/217/70
f 129/229/71 132/230/71 134/231/71 130/232/71
f 133/233/69 130/234/69 134/235/69
f 130/234/72 133/233/72 131/236/72 129/237/72
f 132/230/67 129/229/67 131/238/67
f 135/239/73 138/240/73 140/241/73 136/242/73
f 139/243/74 136/242/74 140/241/74
f 136/244/75 139/245/75 137/246/75 135/247/75
f 138/248/69 135/247/69 137/246/69
